<mxfile host="app.diagrams.net" modified="2022-11-13T17:43:18.121Z" agent="5.0 (X11)" etag="_S9yvd6feprzG7zUdDSM" version="20.5.3" type="github">
  <diagram name="Page-1" id="e7e014a7-5840-1c2e-5031-d8a46d1fe8dd">
    <mxGraphModel dx="1354" dy="691" grid="1" gridSize="10" guides="1" tooltips="1" connect="1" arrows="1" fold="1" page="1" pageScale="1" pageWidth="1169" pageHeight="826" background="none" math="0" shadow="0">
      <root>
        <mxCell id="0" />
        <mxCell id="1" parent="0" />
        <mxCell id="2" value="Client" style="swimlane;whiteSpace=wrap" parent="1" vertex="1">
          <mxGeometry x="169" y="128" width="275.5" height="571" as="geometry" />
        </mxCell>
        <mxCell id="5" value="" style="ellipse;shape=startState;fillColor=#000000;strokeColor=#ff0000;" parent="2" vertex="1">
          <mxGeometry x="100" y="40" width="30" height="30" as="geometry" />
        </mxCell>
        <mxCell id="6" value="" style="edgeStyle=elbowEdgeStyle;elbow=horizontal;verticalAlign=bottom;endArrow=open;endSize=8;strokeColor=#FF0000;endFill=1;rounded=0" parent="2" source="5" target="7" edge="1">
          <mxGeometry x="100" y="40" as="geometry">
            <mxPoint x="115" y="110" as="targetPoint" />
          </mxGeometry>
        </mxCell>
        <mxCell id="7" value="Open app &#xa;in browser" style="" parent="2" vertex="1">
          <mxGeometry x="59" y="115" width="110" height="40" as="geometry" />
        </mxCell>
        <mxCell id="10" value="send broadcast &#xa;keypair request &#xa;to first entry in db" style="" parent="2" vertex="1">
          <mxGeometry x="60" y="325" width="110" height="50" as="geometry" />
        </mxCell>
        <mxCell id="_lHxIt8Jbge4oghGbJTy-41" value="db empty" style="rhombus;fillColor=#ffffc0;strokeColor=#ff0000;" vertex="1" parent="2">
          <mxGeometry x="75" y="252" width="80" height="48" as="geometry" />
        </mxCell>
        <mxCell id="_lHxIt8Jbge4oghGbJTy-42" value="no" style="edgeStyle=elbowEdgeStyle;elbow=horizontal;align=left;verticalAlign=top;endArrow=open;endSize=8;strokeColor=#FF0000;endFill=1;rounded=0;exitX=0.5;exitY=1;exitDx=0;exitDy=0;" edge="1" parent="2" source="_lHxIt8Jbge4oghGbJTy-41">
          <mxGeometry x="-0.9574" y="-8" relative="1" as="geometry">
            <mxPoint x="115.5" y="323" as="targetPoint" />
            <mxPoint x="114.5" y="270" as="sourcePoint" />
            <mxPoint x="8" y="-8" as="offset" />
          </mxGeometry>
        </mxCell>
        <mxCell id="_lHxIt8Jbge4oghGbJTy-45" value="" style="edgeStyle=elbowEdgeStyle;elbow=horizontal;verticalAlign=bottom;endArrow=open;endSize=8;strokeColor=#FF0000;endFill=1;rounded=0;exitX=0.514;exitY=1.01;exitDx=0;exitDy=0;exitPerimeter=0;entryX=0.501;entryY=-0.019;entryDx=0;entryDy=0;entryPerimeter=0;" edge="1" parent="2" source="7" target="_lHxIt8Jbge4oghGbJTy-46">
          <mxGeometry x="-65" y="2" as="geometry">
            <mxPoint x="115.5" y="182" as="targetPoint" />
            <mxPoint x="115.5" y="162" as="sourcePoint" />
          </mxGeometry>
        </mxCell>
        <mxCell id="_lHxIt8Jbge4oghGbJTy-46" value="Create &#xa;client keypair and &#xa;publish public key" style="" vertex="1" parent="2">
          <mxGeometry x="60" y="172" width="110" height="48" as="geometry" />
        </mxCell>
        <mxCell id="_lHxIt8Jbge4oghGbJTy-47" value="Create &#xa;broadcast keypair" style="" vertex="1" parent="2">
          <mxGeometry x="60" y="432" width="110" height="28" as="geometry" />
        </mxCell>
        <mxCell id="_lHxIt8Jbge4oghGbJTy-48" value="" style="endArrow=open;strokeColor=#FF0000;endFill=1;rounded=0;entryX=-0.005;entryY=0.5;entryDx=0;entryDy=0;exitX=0;exitY=0.5;exitDx=0;exitDy=0;entryPerimeter=0;" edge="1" parent="2" source="_lHxIt8Jbge4oghGbJTy-41" target="_lHxIt8Jbge4oghGbJTy-47">
          <mxGeometry relative="1" as="geometry">
            <mxPoint x="69.95000000000005" y="272" as="sourcePoint" />
            <mxPoint x="-74.5" y="303" as="targetPoint" />
            <Array as="points">
              <mxPoint x="35.5" y="276" />
              <mxPoint x="35.5" y="446" />
            </Array>
          </mxGeometry>
        </mxCell>
        <mxCell id="_lHxIt8Jbge4oghGbJTy-49" value="&lt;div&gt;yes&lt;/div&gt;" style="edgeLabel;html=1;align=center;verticalAlign=middle;resizable=0;points=[];" vertex="1" connectable="0" parent="_lHxIt8Jbge4oghGbJTy-48">
          <mxGeometry x="0.3322" relative="1" as="geometry">
            <mxPoint x="-10" y="-42" as="offset" />
          </mxGeometry>
        </mxCell>
        <mxCell id="_lHxIt8Jbge4oghGbJTy-51" value="Store&#xa;broadcast keypair" style="" vertex="1" parent="2">
          <mxGeometry x="60" y="492" width="110" height="28" as="geometry" />
        </mxCell>
        <mxCell id="_lHxIt8Jbge4oghGbJTy-52" value="" style="shape=line;html=1;strokeWidth=6;strokeColor=#ff0000;direction=south;" vertex="1" parent="2">
          <mxGeometry x="195.5" y="480.5" width="10" height="51" as="geometry" />
        </mxCell>
        <mxCell id="_lHxIt8Jbge4oghGbJTy-56" value="" style="edgeStyle=elbowEdgeStyle;elbow=horizontal;verticalAlign=bottom;endArrow=open;endSize=8;strokeColor=#FF0000;endFill=1;rounded=0;" edge="1" parent="2">
          <mxGeometry x="-138.5" y="184" as="geometry">
            <mxPoint x="201" y="492" as="targetPoint" />
            <mxPoint x="171" y="442" as="sourcePoint" />
            <Array as="points">
              <mxPoint x="211" y="432" />
            </Array>
          </mxGeometry>
        </mxCell>
        <mxCell id="3" value="Server" style="swimlane;whiteSpace=wrap" parent="1" vertex="1">
          <mxGeometry x="444.5" y="128" width="280" height="570" as="geometry" />
        </mxCell>
        <mxCell id="13" value="" style="ellipse;shape=startState;fillColor=#000000;strokeColor=#ff0000;" parent="3" vertex="1">
          <mxGeometry x="115.5" y="40" width="30" height="30" as="geometry" />
        </mxCell>
        <mxCell id="14" value="" style="edgeStyle=elbowEdgeStyle;elbow=horizontal;verticalAlign=bottom;endArrow=open;endSize=8;strokeColor=#FF0000;endFill=1;rounded=0" parent="3" source="13" target="15" edge="1">
          <mxGeometry x="40" y="20" as="geometry">
            <mxPoint x="55" y="90" as="targetPoint" />
          </mxGeometry>
        </mxCell>
        <mxCell id="15" value="Get request" style="" parent="3" vertex="1">
          <mxGeometry x="75.5" y="110" width="110" height="50" as="geometry" />
        </mxCell>
        <mxCell id="16" value="Send client id &#xa;and client db" style="" parent="3" vertex="1">
          <mxGeometry x="75.5" y="250" width="110" height="50" as="geometry" />
        </mxCell>
        <mxCell id="_lHxIt8Jbge4oghGbJTy-62" value="" style="edgeStyle=elbowEdgeStyle;elbow=horizontal;verticalAlign=bottom;endArrow=open;endSize=8;strokeColor=#FF0000;endFill=1;rounded=0;exitX=0.998;exitY=0.506;exitDx=0;exitDy=0;exitPerimeter=0;entryX=0.998;entryY=0.468;entryDx=0;entryDy=0;entryPerimeter=0;" edge="1" parent="3" source="15" target="16">
          <mxGeometry x="-219.32999999999998" y="-121.4" as="geometry">
            <mxPoint x="195.5" y="272" as="targetPoint" />
            <mxPoint x="130.21000000000004" y="160" as="sourcePoint" />
            <Array as="points">
              <mxPoint x="226" y="202" />
            </Array>
          </mxGeometry>
        </mxCell>
        <mxCell id="4" value="Other clients" style="swimlane;whiteSpace=wrap" parent="1" vertex="1">
          <mxGeometry x="724.5" y="128" width="280" height="570" as="geometry" />
        </mxCell>
        <mxCell id="18" value="get broadcast &#xa;keypair request&#xa;" style="" parent="4" vertex="1">
          <mxGeometry x="85.5" y="325" width="110" height="50" as="geometry" />
        </mxCell>
        <mxCell id="_lHxIt8Jbge4oghGbJTy-59" value="send broadcast&#xa;keypair (e2ee)&#xa;" style="" vertex="1" parent="4">
          <mxGeometry x="85" y="480.5" width="110" height="50" as="geometry" />
        </mxCell>
        <mxCell id="_lHxIt8Jbge4oghGbJTy-61" value="" style="edgeStyle=elbowEdgeStyle;elbow=horizontal;verticalAlign=bottom;endArrow=open;endSize=8;strokeColor=#FF0000;endFill=1;rounded=0;exitX=0.545;exitY=0.993;exitDx=0;exitDy=0;exitPerimeter=0;entryX=0.556;entryY=-0.023;entryDx=0;entryDy=0;entryPerimeter=0;" edge="1" parent="4" source="18" target="_lHxIt8Jbge4oghGbJTy-59">
          <mxGeometry x="-779.5" y="-116" as="geometry">
            <mxPoint x="-430" y="192" as="targetPoint" />
            <mxPoint x="-429.96000000000004" y="165.39999999999998" as="sourcePoint" />
            <Array as="points">
              <mxPoint x="146" y="422" />
            </Array>
          </mxGeometry>
        </mxCell>
        <mxCell id="20" value="" style="endArrow=open;strokeColor=#FF0000;endFill=1;rounded=0;exitX=1.007;exitY=0.494;exitDx=0;exitDy=0;exitPerimeter=0;entryX=0.007;entryY=0.498;entryDx=0;entryDy=0;entryPerimeter=0;" parent="1" source="10" target="18" edge="1">
          <mxGeometry relative="1" as="geometry">
            <mxPoint x="340" y="478" as="sourcePoint" />
            <mxPoint x="460" y="478" as="targetPoint" />
          </mxGeometry>
        </mxCell>
        <mxCell id="9" value="" style="endArrow=open;strokeColor=#FF0000;endFill=1;rounded=0;entryX=0.007;entryY=0.494;entryDx=0;entryDy=0;entryPerimeter=0;exitX=1.006;exitY=0.459;exitDx=0;exitDy=0;exitPerimeter=0;" parent="1" source="7" target="15" edge="1">
          <mxGeometry relative="1" as="geometry">
            <mxPoint x="340" y="263" as="sourcePoint" />
          </mxGeometry>
        </mxCell>
        <mxCell id="11" value="" style="endArrow=open;strokeColor=#FF0000;endFill=1;rounded=0;entryX=1;entryY=0.5;entryDx=0;entryDy=0;exitX=-0.005;exitY=0.5;exitDx=0;exitDy=0;exitPerimeter=0;" parent="1" source="16" target="_lHxIt8Jbge4oghGbJTy-41" edge="1">
          <mxGeometry relative="1" as="geometry">
            <mxPoint x="470" y="373" as="sourcePoint" />
            <mxPoint x="334.5" y="373" as="targetPoint" />
            <Array as="points" />
          </mxGeometry>
        </mxCell>
        <mxCell id="_lHxIt8Jbge4oghGbJTy-58" value="" style="edgeStyle=elbowEdgeStyle;elbow=horizontal;verticalAlign=bottom;endArrow=open;endSize=8;strokeColor=#FF0000;endFill=1;rounded=0;" edge="1" parent="1" source="_lHxIt8Jbge4oghGbJTy-52">
          <mxGeometry x="-35" y="32" as="geometry">
            <mxPoint x="340" y="634" as="targetPoint" />
            <mxPoint x="314.53999999999996" y="313.4" as="sourcePoint" />
          </mxGeometry>
        </mxCell>
        <mxCell id="_lHxIt8Jbge4oghGbJTy-60" value="" style="endArrow=open;strokeColor=#FF0000;endFill=1;rounded=0;exitX=-0.026;exitY=0.55;exitDx=0;exitDy=0;exitPerimeter=0;" edge="1" parent="1" source="_lHxIt8Jbge4oghGbJTy-59" target="_lHxIt8Jbge4oghGbJTy-52">
          <mxGeometry relative="1" as="geometry">
            <mxPoint x="380" y="569.9999999999999" as="sourcePoint" />
            <mxPoint x="851.0000000000002" y="570.1999999999999" as="targetPoint" />
          </mxGeometry>
        </mxCell>
      </root>
    </mxGraphModel>
  </diagram>
</mxfile>
